<?xml version="1.0" encoding="utf-8"?>
<!-- Generator: Adobe Illustrator 19.0.0, SVG Export Plug-In . SVG Version: 6.00 Build 0)  -->
<svg version="1.1" id="layer" xmlns="http://www.w3.org/2000/svg" xmlns:xlink="http://www.w3.org/1999/xlink" x="0px" y="0px"
	 viewBox="-153 -46 652 652" style="enable-background:new -153 -46 652 652;" xml:space="preserve">
<style type="text/css">
	.st0{fill:none;stroke:#E30717;stroke-width:9.3651;}
	.st1{fill:#E30717;}
</style>
<path id="XMLID_1_" class="st0" d="M172.1,384.3c165.1,0,298.9-46.6,298.9-104.1c0-57.5-133.8-104.2-298.9-104.2
	c-165.1,0-298.9,46.6-298.9,104.2C-126.7,337.7,7.1,384.3,172.1,384.3z"/>
<path id="XMLID_2_" class="st1" d="M210,237.9c-4.9-1.8-10.8-3.5-16.9-3.7l-50.5,0.4c-1.5,0.2-3.3,0.4-4.2,1.9
	c-0.8,4.7-0.6,10.2-0.2,15.1c1.2,2.6,4,2.2,6.2,2.7l43.2,0c7.7,1.4,16,2.8,20.2,10.7c2.2,3.8,2.7,8.2,3.2,12.7v42.7
	c0,9.1-4.4,19.6-14.4,22.2c-8,2.9-17.6,2.4-26.7,2.7l-73,0.2l-0.2-0.2l-4-26.5c8.4,7,21.8,3.8,32.1,4.6l34.5,0.1
	c2.3-0.4,5-1.6,5.8-4.1c-0.4-5.5,2.3-13.1-2.2-16.9c-17.7-1.5-36-0.1-53.9-1.1c-5.1-0.7-10.5-2.9-13.1-7.9c-2.3-4-2.5-8.9-3.2-13.5
	l-0.1-44.7c0.8-9.3,6.2-19,15.6-22.8c3.5-1.1,7.4-2.3,11.2-2.4h87.4L210,237.9z M69.9,219.5c0.7-2.8,1.6-9.3,1.6-9.3H17.3
	c2.1,4,4.7,9.4,4.6,15.2l0.1,84.8c-0.4,3.2-0.9,6.4-2.3,9.2c-2.1,4.1-7,4.1-11.2,4.6l-32.3-0.6c-4.7-0.6-8-2.5-11.8-3
	c1.8,8.2,2.2,16.9,4,25c6.9,0.6,60.6,0,60.6,0c9.8,0.2,19.1-0.6,27-5c15.1-9.9,12.9-32.2,12.9-46.1v-62.1L69.9,219.5 M230.2,210.2
	c3.3,4.9,4.4,11.1,4.2,16.9l0.1,105.3c0.4,4.9-2,9-3.7,13c1.9-0.1,54.2,0,54.2,0c-2.2-3.6-3.7-7.4-4.2-11.7v-35.8l51.1,0.1
	c5.6,0.2,10.5-1.1,15.4-2.5c10.1-2.8,13.6-13.5,14.6-22.8c0-15.6,2.5-35.7-3.7-48.9c-4-7.8-12.2-12.5-19.9-13.7H230.2z M309,233.8
	c2.3,0,4,1.9,4,1.9s0.9,1.6,0.9,3.2c0,1.6,0.1,30.5,0.1,30.5c-0.6,1.9,0,6-5.9,6c-8.7,0-27.5,0-27.5,0v-41.5
	C280.7,233.9,306.6,233.8,309,233.8 M440.1,367.9c0,9.5,7.6,16.4,16.6,16.4c8.9,0,16.5-6.9,16.5-16.4c0-9.4-7.6-16.3-16.5-16.3
	C447.7,351.5,440.1,358.5,440.1,367.9 M456.7,381.5c-7.5,0-13.3-5.8-13.3-13.7c0-7.8,5.8-13.6,13.3-13.6c7.4,0,13.2,5.8,13.2,13.6
	C470,375.7,464.1,381.5,456.7,381.5 M453.3,369.2h3.3l5,8.2h3.2l-5.4-8.3c2.8-0.3,4.9-1.8,4.9-5.2c0-3.7-2.2-5.4-6.7-5.4h-7.2v18.9
	h2.9V369.2z M453.3,366.7v-5.8h3.9c2,0,4.1,0.4,4.1,2.8c0,2.9-2.2,3.1-4.6,3.1H453.3z"/>
</svg>
